<?xml version="1.0" encoding="utf-8"?>
<!-- Generator: Adobe Illustrator 21.0.0, SVG Export Plug-In . SVG Version: 6.00 Build 0)  -->
<svg version="1.1" id="Livello_1" xmlns="http://www.w3.org/2000/svg" xmlns:xlink="http://www.w3.org/1999/xlink" x="0px" y="0px"
	 viewBox="0 0 330 88" style="enable-background:new 0 0 330 88;" xml:space="preserve">
<style type="text/css">
	.st0{fill:#007DC0;}
	.st1{fill:url(#SVGID_1_);}
	.st2{fill:url(#SVGID_2_);}
	.st3{fill:url(#SVGID_3_);}
	.st4{fill:url(#SVGID_4_);}
</style>
<g>
	<path class="st0" d="M156.1,67.2l-5.5-12.3h-25.7l-5.4,12.3h-4.9l20.9-46.3h4.8l20.9,46.3H156.1z M126.7,50.7h22.1l-11.1-25.1
		L126.7,50.7z"/>
	<path class="st0" d="M199.2,24.9c3.1,2.7,4.7,6.5,4.7,11.4c0,5.1-1.6,9-4.7,11.8c-3.1,2.8-7.6,4.2-13.3,4.2h-12.5v15h-4.6V20.8
		h17.1C191.6,20.8,196,22.2,199.2,24.9z M195.9,45.1c2.4-2,3.6-4.9,3.6-8.7c0-3.7-1.2-6.5-3.6-8.5c-2.4-1.9-5.8-2.9-10.3-2.9h-12.3
		v23.1h12.3C190,48.1,193.5,47.1,195.9,45.1z"/>
	<path class="st0" d="M213,20.8h4.6v21.2h29V20.8h4.6v46.3h-4.6v-21h-29v21H213V20.8z"/>
	<path class="st0" d="M262.3,20.8h31V25h-26.5v16.6h23.7v4.1h-23.7v17.4h27.3v4.1h-31.9V20.8z"/>
	<path class="st0" d="M305.4,20.8h4.6v42.2h20.4v4.1h-25V20.8z"/>
</g>
<g>
	<linearGradient id="SVGID_1_" gradientUnits="userSpaceOnUse" x1="10.7095" y1="32.8479" x2="83.8868" y2="32.8479">
		<stop  offset="0" style="stop-color:#00A0E1"/>
		<stop  offset="0.3023" style="stop-color:#009FE0"/>
		<stop  offset="0.7493" style="stop-color:#0080C1"/>
		<stop  offset="1" style="stop-color:#007DC0"/>
	</linearGradient>
	<path class="st1" d="M52.7,3.2c-0.1-0.2-0.2-0.3-0.3-0.5l-0.3-0.4c-0.2-0.2-0.4-0.5-0.6-0.7c-2.4-2.4-6.2-2.4-8.5,0
		c-0.3,0.3-0.5,0.5-0.7,0.8l0,0l-30.8,54l-0.2,0.4c-0.1,0.2-0.1,0.3-0.2,0.5c0,0.1,0,0.1-0.1,0.2c0,0.1-0.1,0.2-0.1,0.3
		c0,0.1-0.1,0.2-0.1,0.4c0,0.1,0,0.1,0,0.2c0,0.1-0.1,0.3-0.1,0.5l0,0.1c0,0.2,0,0.4,0,0.5c0,3.3,2.7,6,6,6l26.6,0l10.5,0
		c3.3-0.1,5.8-2.8,5.8-6c0-3.3-2.7-6-6-6l-26.5,0l20.2-35.5l25.2,44.4c0,0,0.1,0.1,0.1,0.1l0.4,0.6l0,0.1c1.1,1.6,2.9,2.4,4.8,2.4
		c3.3,0,6-2.7,6-6c0-0.9-0.2-1.9-0.7-2.7L52.7,3.2z"/>
	<linearGradient id="SVGID_2_" gradientUnits="userSpaceOnUse" x1="28.1382" y1="81.1906" x2="66.4581" y2="81.1906">
		<stop  offset="0" style="stop-color:#00A0E1"/>
		<stop  offset="0.3023" style="stop-color:#009FE0"/>
		<stop  offset="0.7493" style="stop-color:#0080C1"/>
		<stop  offset="1" style="stop-color:#007DC0"/>
	</linearGradient>
	<path class="st2" d="M66.5,80.1c0-3.2-2.6-5.8-5.8-5.8c-0.7,0-1.3,0.1-2,0.3c-3.6,1.2-7.4,1.9-11.5,1.9c-4,0-7.9-0.7-11.5-1.9
		c-0.6-0.2-1.3-0.3-2-0.3c-3.2,0-5.8,2.6-5.8,5.8c0,2.6,1.7,4.7,4,5.5l0,0c4.8,1.6,9.9,2.5,15.2,2.5c5.2,0,10.2-0.8,14.8-2.4l0,0
		C64.6,85.1,66.5,82.8,66.5,80.1z"/>
	<linearGradient id="SVGID_3_" gradientUnits="userSpaceOnUse" x1="0.3593" y1="22.4275" x2="24.1155" y2="22.4275">
		<stop  offset="0" style="stop-color:#00A0E1"/>
		<stop  offset="0.3023" style="stop-color:#009FE0"/>
		<stop  offset="0.7493" style="stop-color:#0080C1"/>
		<stop  offset="1" style="stop-color:#007DC0"/>
	</linearGradient>
	<path class="st3" d="M3.5,39.5c2.8,1.4,6.3,0.3,7.7-2.5c0.3-0.6,0.5-1.3,0.6-1.9c0.6-3.8,1.7-7.5,3.5-11.1c1.8-3.6,4.2-6.7,6.9-9.3
		c0.5-0.4,0.9-1,1.2-1.6c1.4-2.8,0.3-6.3-2.5-7.7c-2.3-1.2-5-0.7-6.7,1l0,0c-3.6,3.5-6.7,7.7-9.1,12.4c-2.4,4.6-3.9,9.4-4.6,14.3
		l0,0C-0.1,35.6,1.1,38.3,3.5,39.5z"/>
	<linearGradient id="SVGID_4_" gradientUnits="userSpaceOnUse" x1="70.6167" y1="22.4275" x2="94.373" y2="22.4275">
		<stop  offset="0" style="stop-color:#00A0E1"/>
		<stop  offset="0.3023" style="stop-color:#009FE0"/>
		<stop  offset="0.7493" style="stop-color:#0080C1"/>
		<stop  offset="1" style="stop-color:#007DC0"/>
	</linearGradient>
	<path class="st4" d="M91.2,39.5c-2.8,1.4-6.3,0.3-7.7-2.5c-0.3-0.6-0.5-1.3-0.6-1.9c-0.6-3.8-1.7-7.5-3.5-11.1
		c-1.8-3.6-4.2-6.7-6.9-9.3c-0.5-0.4-0.9-1-1.2-1.6c-1.4-2.8-0.3-6.3,2.5-7.7c2.3-1.2,5-0.7,6.7,1l0,0c3.6,3.5,6.7,7.7,9.1,12.4
		c2.4,4.6,3.9,9.4,4.6,14.3l0,0C94.8,35.6,93.6,38.3,91.2,39.5z"/>
</g>
</svg>
